<?xml version="1.0" encoding="UTF-8"?>
<svg id="Layer_1" data-name="Layer 1" xmlns="http://www.w3.org/2000/svg" viewBox="0 0 1500 235.59">
  <defs>
    <style>
      .cls-1 {
        fill: #080808;
        stroke-width: 0px;
      }
    </style>
  </defs>
  <path class="cls-1" d="M139.63,41.79h-2.95c-9.1-27.29-15.24-34.91-36.87-34.91h-4.18l-29.5,138.65c-3.93,18.19-5.65,30.48,11.06,30.48l-.49,2.95H4.67l.49-2.95c16.72,0,20.4-12.29,24.34-30.48L59,6.88h-4.67c-21.39,0-30.48,7.62-51.38,34.91H0L12.54,0h132.26l-5.16,41.79Z"/>
  <path class="cls-1" d="M318.34,0l-.49,2.95c-7.82,0-12.77,2.68-16.23,7.4,0,0-.02.02-.04.04-3.94,5.38-5.98,13.36-8.06,23.04l-12.89,60.41c-3.42,13.92-6.64,27.86-8.93,41.86l-2.27,10.58c-2.29,10.54-3.65,18.83-1.15,23.96,1.81,3.73,5.67,5.77,12.7,5.77l-.49,2.95h-72.02l.49-2.95c9.05,0,14.21-3.38,17.65-9.38,2.93-5.09,4.62-12.02,6.43-20.36l.97-4.58c2.43-9.69,4.43-19.53,6.27-29.39l4.56-21.35h-58.51l-1.34,6.29c-3.4,12.48-5.73,25.39-8.17,38.26l-2.29,10.76c-.72,3.36-1.36,6.48-1.81,9.34-2.06,12.7-.54,20.4,13.12,20.4l-.49,2.95h-71.77l.47-2.95c6.74,0,11.32-1.88,14.64-5.3,4.93-5.09,7.11-13.57,9.47-24.44l15.55-73.6c18.53.09,18.79-33.6,10.87-58.73-.78-2.43-1.73-4.68-2.87-7.05-2.04-2.72-4.96-3.94-10.78-3.94l.49-2.95h71.79l-.49,2.95c-7.18,0-11.94,2.27-15.34,6.29-.04.04-.08.1-.12.14-1.38,1.63-2.54,3.55-3.53,5.71,0,0,0,.02-.02.04-2.27,4.93-3.79,11.16-5.32,18.29l-5.01,23.61-5.32,25.06h58.51l1.99-9.43s10.42-.66,12.96-11.4c1.75-6.27,2.66-22.73-2.37-40.14-2.04-7.12-4.54-13.43-7.32-17.47-1.65-.47-3.63-.72-5.98-.72l.47-2.95h72.04Z"/>
  <path class="cls-1" d="M322.77,0h125.62l-5.16,41.79h-2.95c-9.1-27.29-17.21-34.91-44.49-34.91h-20.4l-15.73,74.98h14.5c24.09,0,31.47-7.13,40.81-22.86h2.95l-12.05,55.81h-2.95c-2.46-16.96-6.39-25.08-30.48-25.08h-14.5l-15,70.8c-1.48,7.13-.25,11.55,7.37,11.55h13.52c25.07,0,39.09-6.14,63.43-39.82h2.95l-15.98,46.71h-129.31l.49-2.95c16.72,0,20.4-12.29,24.34-30.48l23.6-112.1c3.93-18.19,5.65-30.48-11.06-30.48L322.77,0Z"/>
  <path class="cls-1" d="M708.02,2.95c-16.96,1.48-20.65,10.82-23.6,29.01l-18.19,115.05c-2.95,18.19-4.43,29.01,12.29,29.01l-.49,2.95h-70.55l.49-2.95c16.72,0,19.42-10.82,22.37-29.01l18.93-119.72-84.32,151.68h-5.9l-25.07-153.89-27.04,102.76c-7.62,29.01-4.18,47.69,10.08,48.18l-.49,2.95h-47.94l.49-2.95c13.52-1.23,21.88-19.42,29.5-48.18l26.3-99.32c4.67-17.7-2.46-23.6-12.29-25.57l.49-2.95h53.84l19.42,123.9L654.93,0h53.59l-.49,2.95Z"/>
  <path class="cls-1" d="M1059.2,2.95c-16.96,1.48-20.65,10.82-23.6,29.01l-18.19,115.05c-2.95,18.19-4.42,29.01,12.29,29.01l-.49,2.95h-70.55l.49-2.95c16.72,0,19.42-10.82,22.37-29.01l18.93-119.72-84.32,151.68h-5.9l-25.07-153.89-27.04,102.76c-7.62,29.01-4.18,47.69,10.08,48.18l-.49,2.95h-47.94l.49-2.95c13.52-1.23,21.88-19.42,29.5-48.18l26.3-99.32c4.67-17.7-2.46-23.6-12.29-25.57l.49-2.95h53.84l19.42,123.9L1006.1,0h53.59l-.49,2.95Z"/>
  <path class="cls-1" d="M1066.82,0h125.62l-5.16,41.79h-2.95c-9.1-27.29-17.21-34.91-44.5-34.91h-20.4l-15.73,74.98h14.5c24.09,0,31.47-7.13,40.81-22.86h2.95l-12.05,55.81h-2.95c-2.46-16.96-6.39-25.08-30.48-25.08h-14.5l-15,70.8c-1.48,7.13-.25,11.55,7.37,11.55h13.52c25.07,0,39.09-6.14,63.42-39.82h2.95l-15.98,46.71h-129.31l.49-2.95c16.72,0,20.4-12.29,24.34-30.48l23.6-112.1c3.93-18.19,5.65-30.48-11.06-30.48l.49-2.95Z"/>
  <path class="cls-1" d="M1312.64,0h46.46l-.74,2.95c-14.26.49-21.39,20.16-26.55,45.23l-28.52,134.22h-5.65l-71.04-156.35-21.63,100.55c-6.15,29.01-3.93,48.92,10.82,49.41l-.49,2.95h-49.9l.74-2.95c14.5-.98,24.34-20.4,30.48-49.41l20.4-95.38c4.18-18.68-4.42-26.3-14.01-28.27l.49-2.95h50.4l54.33,120.7,15.24-72.52c5.16-25.08,4.18-43.02-11.55-45.23l.74-2.95Z"/>
  <path class="cls-1" d="M1497.22,0l-1.86,15.03-3.32,26.75h-2.95c-9.09-27.28-15.24-34.91-36.87-34.91h-.21c-1.96,2.64-4.44,4.93-5.63,7.86-39.11,96.48-41.42,125.35-28.75,135.16.53.41,1.36.12,2.08.12-2.43,8.5-4.19,19.55,2.52,24.79,1.92.78,4.35,1.2,7.38,1.2l-.27,1.59-.23,1.36s-.06.02-.08.02h-71.95l.02-.12.37-2.25.1-.6c.52,0,1.01-.02,1.51-.04h.02c10.5-4.62,14.19-15.86,16.68-26.15,11.43-47.85,24.15-95.13,34.79-142.94h-3.84c-21.39,0-30.48,7.63-51.37,34.91h-2.95l5.73-19.1L1364.96,0h132.25Z"/>
  <path class="cls-1" d="M763.02,8.53c-45.78,19.18-96.31,69.71-124.56,109.3,10.31,9.28,24.75,12.58,38.57,14.64,13.82,2.27,28.25,3.71,40.42,10.52,12.17,6.81,17.53,20,17.53,33.41,0,36.5-67.03,59.19-67.03,59.19,0,0,171.17-16.5,184.99-146.63,6.19-57.74-20.62-109.71-89.92-80.64v.21ZM818.29,123.82c-31.97,83.11-59.81,42.69-58.57,22.27,3.51-60.01,31.55-43.93-19.59-28.87-41.66,12.37-66.82-6.6-41.25-36.71,35.68-42.07,164.98-75.48,119.41,43.1v.21Z"/>
</svg>