<?xml version="1.0" encoding="UTF-8"?>
<svg id="GRAPHIC" xmlns="http://www.w3.org/2000/svg" viewBox="0 0 1000 1000">
  <defs>
    <style>
      .cls-1 {
        fill: #231f20;
        stroke-width: 0px;
      }
    </style>
  </defs>
  <g id="_Radial_Repeat_" data-name="&amp;lt;Radial Repeat&amp;gt;">
    <g>
      <g id="_Radial_Repeat_-2" data-name="&amp;lt;Radial Repeat&amp;gt;">
        <path class="cls-1" d="M565.7,635.04c-47.26,15.37-101.84,61.62-133.3,98.8,9.52,10.11,23.66,14.59,37.27,17.79,13.6,3.4,27.89,6.03,39.47,13.82s15.84,21.4,14.74,34.78c-3.01,36.42-71.75,53.54-71.75,53.54,0,0,172.16-2.36,196.66-131.07,10.93-57.11-11.54-111.17-83.08-87.87l-.02.21ZM611.35,754.62c-38.74,80.3-63.19,37.67-60.28,17.4,8.44-59.59,35.1-41.23-17.17-30.42-42.59,8.91-66.13-12.09-38.13-40.03,39.07-39.04,170.84-61.72,115.6,52.84l-.02.21Z"/>
      </g>
      <g id="_Radial_Repeat_-3" data-name="&amp;lt;Radial Repeat&amp;gt;">
        <path class="cls-1" d="M556.75,831.5c-33.34-36.86-97.86-67.76-144.65-81.28-5.33,12.82-3.65,27.55-1,41.29,2.45,13.8,5.89,27.92,3.51,41.67-2.38,13.75-13.06,23.21-25.72,27.67-34.47,12.14-78.19-43.61-78.19-43.61,0,0,72.51,156.16,200,125.92,56.59-13.36,96.75-55.97,46.24-111.73l-.19.07ZM466.26,922.04c-89.12-2.54-60.21-42.28-40.51-47.9,57.84-16.65,51.98,15.19,20.75-28.1-25.54-35.22-15.99-65.3,20.95-51.16,51.6,19.7,126.15,130.7-.99,127.1l-.19.07Z"/>
      </g>
      <g id="_Radial_Repeat_-4" data-name="&amp;lt;Radial Repeat&amp;gt;">
        <path class="cls-1" d="M355.87,880.34c-42.7,25.43-113.46,36-162.15,35.16-1.33-13.83,4.61-27.41,11.18-39.76,6.4-12.47,13.84-24.95,15.61-38.8,1.77-13.85-5.66-26.02-16.45-34-29.38-21.74-87.55,18.7-87.55,18.7,0,0,115.22-127.94,228.18-61.57,50.16,29.41,76.02,81.94,11.35,120.39l-.17-.12ZM296,767.21c-85.93-23.77-69.97,22.71-52.81,33.88,50.39,32.92,54.15.76,11.57,32.96-34.77,26.16-34.48,57.71,4.98,55.06,55.11-3.66,159-87.84,36.42-121.77l-.17-.12Z"/>
      </g>
    </g>
  </g>
  <g id="_Radial_Repeat_-5" data-name="&amp;lt;Radial Repeat&amp;gt;">
    <g>
      <g id="_Radial_Repeat_-6" data-name="&amp;lt;Radial Repeat&amp;gt;">
        <path class="cls-1" d="M410.89,618.03c-29.22-40.2-90.07-77.82-135.16-96.24-6.67,12.18-6.57,27.01-5.4,40.95.97,13.99,2.88,28.39-.95,41.81-3.83,13.42-15.46,21.68-28.52,24.77-35.57,8.4-73.09-51.7-73.09-51.7,0,0,55.44,163,185.43,146.54,57.69-7.25,102.17-45.33,57.89-106.16l-.2.05ZM311.27,698.4c-88.34-12.03-55.35-48.46-35.17-51.95,59.29-10.39,50.06,20.64,23.63-25.73-21.64-37.75-8.94-66.63,26.28-48.63,49.2,25.09,111.5,143.41-14.54,126.27l-.2.05Z"/>
      </g>
      <g id="_Radial_Repeat_-7" data-name="&amp;lt;Radial Repeat&amp;gt;">
        <path class="cls-1" d="M221.28,670.23c24.75-43.1,34.21-114.01,32.6-162.69-13.85-1.11-27.33,5.04-39.58,11.81-12.37,6.6-24.73,14.23-38.55,16.22-13.82,1.99-26.11-5.25-34.26-15.91-22.2-29.03,17.31-87.84,17.31-87.84,0,0-126.11,117.22-57.96,229.12,30.2,49.69,83.13,74.72,120.55,9.45l-.13-.16ZM107.21,612.15c-25.12-85.54,21.61-70.32,33.04-53.33,33.71,49.86,1.62,54.13,33.14,11.05,25.61-35.18,57.16-35.39,55.13,4.11-2.79,55.16-85.32,160.37-121.18,38.34l-.13-.16Z"/>
      </g>
      <g id="_Radial_Repeat_-8" data-name="&amp;lt;Radial Repeat&amp;gt;">
        <path class="cls-1" d="M112.75,494.27c-37.38-32.75-69.3-96.78-83.55-143.35,12.74-5.54,27.49-4.08,41.27-1.65,13.84,2.24,28.01,5.45,41.72,2.85,13.71-2.6,23-13.43,27.26-26.15,11.6-34.66-44.84-77.49-44.84-77.49,0,0,157.28,70.04,129.06,197.99-12.47,56.79-54.43,97.62-110.99,48l.07-.2ZM201.85,402.37c-3.95-89.07-43.22-59.53-48.54-39.75-15.74,58.09,16,51.73-27.77,21.19-35.62-24.98-65.54-14.96-50.82,21.75,20.51,51.28,132.67,124.08,127.07-2.99l.07-.2Z"/>
      </g>
    </g>
  </g>
  <g id="_Radial_Repeat_-9" data-name="&amp;lt;Radial Repeat&amp;gt;">
    <g>
      <g id="_Radial_Repeat_-10" data-name="&amp;lt;Radial Repeat&amp;gt;">
        <path class="cls-1" d="M379.23,465.55c29.2-40.21,46.17-109.71,49.76-158.28-13.65-2.58-27.72,2.1-40.61,7.52-13,5.24-26.11,11.51-40.05,12.01-13.95.5-25.4-8-32.37-19.47-18.98-31.23,26.58-85.49,26.58-85.49,0,0-137.89,103.1-82.06,221.63,24.72,52.63,74.68,83.16,118.86,22.25l-.11-.18ZM272.01,395.63c-15.85-87.73,28.98-67.62,38.54-49.51,28.2,53.17-4.16,53.99,31.77,14.52,29.21-32.24,60.61-29.09,54.38,9.97-8.66,54.55-101.93,150.35-124.58,25.19l-.11-.18Z"/>
      </g>
      <g id="_Radial_Repeat_-11" data-name="&amp;lt;Radial Repeat&amp;gt;">
        <path class="cls-1" d="M270.99,301.34c48.64,10.22,119-2.7,164.8-19.27-3.22-13.51-13.24-24.44-23.46-33.99-10.1-9.72-21.18-19.12-27.33-31.65-6.16-12.53-3.07-26.45,4.55-37.5,20.75-30.08,88.89-10.68,88.89-10.68,0,0-150.45-83.71-235.82,15.68-37.93,44.07-45.38,102.15,28.26,117.57l.12-.17ZM290.98,174.91c73.59-50.32,73.56-1.18,60.93,14.94-37.01,47.47-50.98,18.27-.27,34.93,41.37,13.48,51.32,43.42,13.12,53.7-53.32,14.39-178.88-31.58-73.91-103.41l.12-.17Z"/>
      </g>
      <g id="_Radial_Repeat_-12" data-name="&amp;lt;Radial Repeat&amp;gt;">
        <path class="cls-1" d="M404.8,143.76c19.6-45.67,70.63-95.82,110.52-123.76,9.2,10.4,12.38,24.89,14.32,38.74,2.15,13.85,3.47,28.32,10.18,40.56,6.71,12.24,19.88,17.72,33.3,17.84,36.55.32,59.84-66.59,59.84-66.59,0,0-18.01,171.23-148.41,183.93-57.87,5.69-109.66-21.6-79.95-90.72h.21ZM519.74,200.1c83.49-31.28,43.26-59.5,22.81-58.44-60.11,2.99-44.25,31.21-28.74-19.87,12.75-41.6-6.02-66.95-36.39-41.61-42.43,35.35-77.01,164.52,42.11,119.92h.21Z"/>
      </g>
    </g>
  </g>
  <g id="_Radial_Repeat_-13" data-name="&amp;lt;Radial Repeat&amp;gt;">
    <g>
      <g id="_Radial_Repeat_-14" data-name="&amp;lt;Radial Repeat&amp;gt;">
        <path class="cls-1" d="M514.47,388.31c47.27,15.35,118.61,10.01,165.91-1.58-1.76-13.78-10.56-25.71-19.7-36.3-9-10.75-19.01-21.27-23.8-34.38-4.79-13.11-.24-26.63,8.52-36.8,23.84-27.7,89.52-1.14,89.52-1.14,0,0-140.67-99.28-236.15-9.56-42.41,39.78-56.01,96.72,15.56,119.92l.13-.16ZM547.83,264.73c78.54-42.19,73.27,6.67,58.99,21.35-41.86,43.25-52.63,12.72-3.99,34.71,39.69,17.82,46.39,48.65,7.32,54.8-54.55,8.62-174.49-50.48-62.46-110.7l.13-.16Z"/>
      </g>
      <g id="_Radial_Repeat_-15" data-name="&amp;lt;Radial Repeat&amp;gt;">
        <path class="cls-1" d="M637.19,234.63c5.31,49.41,39.34,112.34,69.25,150.78,11.85-7.24,19.15-20.15,25.08-32.82,6.13-12.61,11.64-26.05,21.65-35.78,10.01-9.73,24.21-11.1,37.07-7.26,35.02,10.44,37.62,81.24,37.62,81.24,0,0,33.12-168.96-87.79-219.43-53.64-22.45-111.17-11.59-103.08,63.21l.2.06ZM763.61,214.57c70.6,54.44,23.86,69.59,4.62,62.57-56.58-20.53-33.12-42.84-33.31,10.54-.04,43.51-25.44,62.22-47.02,29.08-30.16-46.26-25.24-179.89,75.51-102.24l.2.06Z"/>
      </g>
      <g id="_Radial_Repeat_-16" data-name="&amp;lt;Radial Repeat&amp;gt;">
        <path class="cls-1" d="M828.41,313.2c49.49,4.53,112.95,37.56,151.85,66.86-7.05,11.97-19.84,19.46-32.42,25.59-12.51,6.33-25.86,12.05-35.43,22.21-9.57,10.16-10.72,24.38-6.68,37.18,10.99,34.86,81.82,36.34,81.82,36.34,0,0-168.41,35.78-220.79-84.31-23.29-53.28-13.34-110.97,61.58-104.07l.06.2ZM810.35,439.92c55.55,69.73,69.96,22.76,62.63,3.63-21.42-56.25-43.36-32.44,10.01-33.47,43.5-.73,61.82-26.42,28.33-47.47-46.73-29.43-180.26-22.4-101.04,77.11l.06.2Z"/>
      </g>
    </g>
  </g>
  <g id="_Radial_Repeat_-17" data-name="&amp;lt;Radial Repeat&amp;gt;">
    <g>
      <g id="_Radial_Repeat_-18" data-name="&amp;lt;Radial Repeat&amp;gt;">
        <path class="cls-1" d="M629.71,493.07c0,49.7,27.13,115.9,52.78,157.3,12.56-5.93,21.19-17.99,28.44-29.95,7.44-11.88,14.35-24.66,25.34-33.26,10.99-8.61,25.25-8.45,37.63-3.27,33.71,14.12,28.74,84.79,28.74,84.79,0,0,50.95-164.46-63.88-227.54-50.94-28.04-109.3-23.38-109.24,51.86l.19.08ZM757.55,486.6c64.39,61.66,16.3,71.74-2.08,62.7-54.07-26.44-28.37-46.13-34.24,6.93-4.68,43.26-31.93,59.16-49.85,23.9-25.06-49.22-5.91-181.55,85.98-93.61l.19.08Z"/>
      </g>
      <g id="_Radial_Repeat_-19" data-name="&amp;lt;Radial Repeat&amp;gt;">
        <path class="cls-1" d="M813.79,562.29c-45.35,20.32-94.69,72.13-122,112.45,10.55,9.04,25.08,11.98,38.96,13.71,13.89,1.93,28.37,3.02,40.72,9.54,12.35,6.51,18.04,19.59,18.36,33.01.89,36.54-65.64,60.88-65.64,60.88,0,0,170.92-20.71,181.56-151.3,4.78-57.95-23.33-109.31-91.97-78.51v.21ZM871.94,676.32c-29.96,83.97-58.81,44.19-58.08,23.73,2.04-60.15,30.51-44.74-20.32-28.42-41.39,13.41-67.04-4.97-42.18-35.73,34.68-42.98,163.28-79.59,120.57,40.21v.21Z"/>
      </g>
      <g id="_Radial_Repeat_-20" data-name="&amp;lt;Radial Repeat&amp;gt;">
        <path class="cls-1" d="M798.17,768.43c10.99,48.47-.82,119.03-16.67,165.08-13.56-3.01-24.64-12.86-34.36-22.92-9.88-9.94-19.45-20.87-32.07-26.83-12.62-5.96-26.5-2.66-37.42,5.14-29.75,21.22-9.27,89.04-9.27,89.04,0,0-86.08-149.11,11.96-236.04,43.47-38.62,101.42-46.98,118.01,26.41l-.17.12ZM672.07,790.41c-49.16,74.38-.02,73.57,15.9,60.69,46.88-37.75,17.46-51.26,34.92-.82,14.14,41.15,44.23,50.63,53.9,12.28,13.55-53.54-34.4-178.36-104.56-72.27l-.17.12Z"/>
      </g>
    </g>
  </g>
</svg>